<svg id="Layer_1" data-name="Layer 1" xmlns="http://www.w3.org/2000/svg" viewBox="0 0 20 20"><path d="M9.72,2.57a7.5,7.5,0,1,0,7.5,7.5A7.5,7.5,0,0,0,9.72,2.57Zm5,3.45a6.37,6.37,0,0,1,1.44,4,14.65,14.65,0,0,0-4.46-.21c-.17-.43-.34-.8-.56-1.26A8.53,8.53,0,0,0,14.68,6ZM14,5.28A7.13,7.13,0,0,1,10.61,7.6,35.63,35.63,0,0,0,8.22,3.85,6.39,6.39,0,0,1,14,5.28Zm-7-1A40.25,40.25,0,0,1,9.37,8a23.36,23.36,0,0,1-5.92.78A6.41,6.41,0,0,1,7,4.28Zm-3.68,5.8a1.34,1.34,0,0,1,0-.2A23.3,23.3,0,0,0,9.9,9c.18.36.36.72.52,1.09A9.89,9.89,0,0,0,5,14.36,6.41,6.41,0,0,1,3.31,10.08Zm2.48,5.05a9,9,0,0,1,5.06-4A26.12,26.12,0,0,1,12.22,16,6.38,6.38,0,0,1,5.79,15.13Zm7.51.26a28.1,28.1,0,0,0-1.25-4.57,9.43,9.43,0,0,1,4,.27A6.43,6.43,0,0,1,13.3,15.39Z"/></svg>