<svg id="Layer_1" data-name="Layer 1" xmlns="http://www.w3.org/2000/svg" viewBox="0 0 20 20"><path d="M9.72,3a7.07,7.07,0,1,0,7.06,7.07A7.08,7.08,0,0,0,9.72,3Zm4.67,3.26A6,6,0,0,1,15.75,10a14.16,14.16,0,0,0-4.2-.2c-.16-.4-.32-.75-.53-1.18a8.08,8.08,0,0,0,3.37-2.38Zm-.67-.7a6.77,6.77,0,0,1-3.16,2.18A30.58,30.58,0,0,0,8.3,4.21,6,6,0,0,1,13.72,5.56ZM7.15,4.61A39.57,39.57,0,0,1,9.39,8.1a22.8,22.8,0,0,1-5.58.74A6.07,6.07,0,0,1,7.15,4.61ZM3.68,10.08a1.15,1.15,0,0,1,0-.19A22.2,22.2,0,0,0,9.89,9c.17.34.34.68.49,1a9.37,9.37,0,0,0-5.15,4A6,6,0,0,1,3.68,10.08ZM6,14.84a8.48,8.48,0,0,1,4.78-3.79,25.14,25.14,0,0,1,1.29,4.58A6,6,0,0,1,6,14.84Zm7.08.24a25.35,25.35,0,0,0-1.17-4.3,8.9,8.9,0,0,1,3.76.25A6.09,6.09,0,0,1,13.09,15.08Z"/></svg>