<svg id="Layer_1" data-name="Layer 1" xmlns="http://www.w3.org/2000/svg" viewBox="0 0 20 20"><path d="M15.81,4.57H3.62a1.39,1.39,0,0,0-1.4,1.37v8.25a1.39,1.39,0,0,0,1.4,1.38H15.81a1.4,1.4,0,0,0,1.41-1.38V5.94A1.39,1.39,0,0,0,15.81,4.57ZM3.62,5.48H15.81a.47.47,0,0,1,.47.46V7.13c-.64.53-1.56,1.26-4.41,3.47-.5.39-1.47,1.31-2.15,1.3S8.06,11,7.57,10.6C4.71,8.39,3.8,7.66,3.16,7.13V5.94A.47.47,0,0,1,3.62,5.48Zm12.19,9.17H3.62a.47.47,0,0,1-.46-.46V8.32c.66.53,1.72,1.36,3.82,3,.61.47,1.67,1.5,2.74,1.5s2.12-1,2.73-1.5c2.11-1.64,3.16-2.47,3.83-3v5.87A.47.47,0,0,1,15.81,14.65Z"/></svg>