<?xml version="1.0" encoding="utf-8"?>
<!-- Generator: Adobe Illustrator 27.5.0, SVG Export Plug-In . SVG Version: 6.00 Build 0)  -->
<svg version="1.1" id="Layer_1" xmlns="http://www.w3.org/2000/svg" xmlns:xlink="http://www.w3.org/1999/xlink" x="0px" y="0px"
	 viewBox="0 0 38 38" style="enable-background:new 0 0 38 38;" xml:space="preserve">
<path d="M34.2,24.3c-2,5.8-7.3,10.1-13.7,10.7c-0.4,0-0.7-0.2-0.7-0.6c0-4.1,0-26.7,0-30.8c0-0.4,0.3-0.6,0.6-0.6
	c7,0.6,11.7,4.9,13.7,10.7c0.1,0.2,0.2,0.3,0.4,0.3l2,0c0.3,0,0.5-0.2,0.5-0.5V1.8C37,1.3,36.7,1,36.2,1H18h-0.1v0
	C8.5,1.6,1,9.4,1,19c0,9.6,7.5,17.4,16.8,18c0.1,0,0.2,0,0.2,0h18.2c0.4,0,0.8-0.3,0.8-0.8V24.5c0-0.3-0.2-0.5-0.5-0.5h-2
	C34.4,24,34.2,24.1,34.2,24.3z M35.1,3.4l0,5.7c0,0.5-0.6,0.6-0.8,0.2c-1.4-2.3-3.3-4.2-5.6-5.6c-0.4-0.2-0.2-0.8,0.2-0.8l5.7,0
	C34.9,2.9,35.1,3.2,35.1,3.4z M17.8,34.2c0,0.5-0.4,0.8-0.9,0.8c-7.9-1-14-7.8-14-15.9c0-8.2,6.2-15.1,14.2-16
	c0.4,0,0.7,0.2,0.7,0.6V34.2z M34.6,35.1h-5.7c-0.5,0-0.6-0.6-0.2-0.8c2.3-1.4,4.2-3.4,5.6-5.6c0.2-0.4,0.8-0.2,0.8,0.2v5.7
	C35.1,34.8,34.9,35.1,34.6,35.1z"/>
</svg>
