<?xml version="1.0" encoding="utf-8"?>
<!-- Generator: Adobe Illustrator 24.2.1, SVG Export Plug-In . SVG Version: 6.00 Build 0)  -->
<svg version="1.1" id="Layer_1" xmlns="http://www.w3.org/2000/svg" xmlns:xlink="http://www.w3.org/1999/xlink" x="0px" y="0px"
	 viewBox="0 0 38 38" style="enable-background:new 0 0 38 38;" xml:space="preserve">
<style type="text/css">
	.st0{fill:#FF0048;}
	.st1{fill:none;stroke:#000000;stroke-width:2;stroke-miterlimit:10;}
	.st2{fill:none;stroke:#000000;stroke-width:40;stroke-linejoin:round;stroke-miterlimit:10;}
	.st3{fill:#FFFFFF;}
</style>
<path d="M19.9,3c6.7,0.4,12.4,5,14.4,11.2H37V1H18c0,0-0.1,0-0.1,0C8.5,1.6,1,9.5,1,19c0,9.5,7.5,17.4,16.8,18c0,0,0.1,0,0.1,0h19
	V23.9h-2.7c-2,6.2-7.6,10.8-14.4,11.2c0,0-0.1,0-0.2,0V3H19.9z M35,3v7.9c-1.7-3.4-4.5-6.2-7.9-7.9H35z M17.8,35
	C9.5,34.4,2.9,27.5,2.9,19c0-8.5,6.6-15.4,14.9-16V35z M35,27.1V35h-7.9C30.6,33.3,33.3,30.5,35,27.1z M19,1c-0.4,0-0.7,0-1,0H20
	C19.7,1,19.4,1,19,1z"/>
</svg>
