<svg xmlns="http://www.w3.org/2000/svg" viewBox="0 0 600 200"><path d="M100 200H0c0-27.61 22.39-50 50-50s50 22.39 50 50ZM50 100c-27.61 0-50 22.39-50 50h100c0-27.61-22.39-50-50-50Zm200 50c-27.61 0-50 22.39-50 50h100c0-27.61-22.39-50-50-50Zm0-50c-27.61 0-50 22.39-50 50h100c0-27.61-22.39-50-50-50Zm0-50c-27.61 0-50 22.39-50 50h100c0-27.61-22.39-50-50-50Zm0-50c-27.61 0-50 22.39-50 50h100c0-27.61-22.39-50-50-50Zm150 0H300c0 27.61 22.39 50 50 50s50-22.39 50-50Zm0 50H300c0 27.61 22.39 50 50 50s50-22.39 50-50ZM200 0c-27.61 0-50 22.39-50 50s22.39 50 50 50V0ZM100 50c0 27.61 22.39 50 50 50V0c-27.61 0-50 22.39-50 50Zm450 0c0 27.61 22.39 50 50 50V0c-27.61 0-50 22.39-50 50Zm-50 0c0 27.61 22.39 50 50 50V0c-27.61 0-50 22.39-50 50ZM400 0v100c27.61 0 50-22.39 50-50S427.61 0 400 0Zm50 0v100c27.61 0 50-22.39 50-50S477.61 0 450 0ZM100 100v100c27.61 0 50-22.39 50-50s-22.39-50-50-50Zm100 0c-27.61 0-50 22.39-50 50s22.39 50 50 50V100Zm250 50c0-27.61-22.39-50-50-50v100c27.61 0 50-22.39 50-50Zm50 50V100c-27.61 0-50 22.39-50 50s22.39 50 50 50ZM300 100c0 27.61 22.39 50 50 50s50-22.39 50-50H300Zm50 50c-27.61 0-50 22.39-50 50h100c0-27.61-22.39-50-50-50Z" fill="#e8e8e5"/><path d="M550 103c25.92 0 47 21.08 47 47s-21.08 47-47 47-47-21.08-47-47 21.08-47 47-47m0-3c-27.61 0-50 22.39-50 50s22.39 50 50 50 50-22.39 50-50-22.39-50-50-50Z"/><path d="M100 51.5H57.37l39.24 16.66-1.17 2.76L56.52 54.4l29.9 29.9-2.12 2.12-29.9-29.9 16.52 38.92-2.76 1.17L51.5 57.37V100h-3V57.37L31.84 96.61l-2.76-1.17L45.6 56.52l-29.9 29.9-2.12-2.12 29.9-29.9L4.56 70.92l-1.17-2.76L42.63 51.5H0v-3h42.63L3.39 31.84l1.17-2.76L43.48 45.6l-29.9-29.89 2.12-2.12 29.9 29.9L29.08 4.56l2.76-1.17L48.5 42.63V0h3v42.63L68.16 3.39l2.76 1.17L54.4 43.48l29.9-29.9 2.12 2.12-29.9 29.9 38.92-16.52 1.17 2.76L57.37 48.5H100v3Z" fill="#ff0048"/></svg>