<svg id="pattern" xmlns="http://www.w3.org/2000/svg" viewBox="0 0 600 200"><defs><clipPath id="clippath"><path clip-rule="evenodd" fill="none" d="M48.7.44v44.88L31.17 4.01l-1.92.81 17.44 41.09-31.56-31.56-1.48 1.47 31.57 31.57L4.13 29.94l-.82 1.92L44.62 49.4H-.26v2.08h44.88L3.31 69.02l.82 1.92 41.09-17.45-31.57 31.57 1.48 1.47 31.56-31.56-17.44 41.09 1.92.81L48.7 55.56v44.88h2.09V55.56l17.53 41.31 1.92-.81L52.8 54.97l31.56 31.56 1.48-1.47-31.57-31.57 41.09 17.45.82-1.92-41.32-17.54h44.88V49.4H54.86l41.32-17.54-.82-1.92-41.09 17.45 31.57-31.57-1.48-1.47L52.8 45.91 70.24 4.82l-1.92-.81-17.53 41.31V.44H48.7z"/></clipPath><clipPath id="clippath-1"><path fill="none" d="M-35.55-190.15h470.59v727.06H-35.55z"/></clipPath><style>.cls-4{fill:#e8e8e5}</style></defs><path class="cls-4" d="M0 200c0-27.61 22.39-50 50-50s50 22.39 50 50H0ZM0 150c0-27.61 22.39-50 50-50s50 22.39 50 50H0ZM200 200c0-27.61 22.39-50 50-50s50 22.39 50 50H200ZM200 150c0-27.61 22.39-50 50-50s50 22.39 50 50H200ZM200 100c0-27.61 22.39-50 50-50s50 22.39 50 50H200ZM200 50c0-27.61 22.39-50 50-50s50 22.39 50 50H200ZM400 0c0 27.61-22.39 50-50 50s-50-22.39-50-50h100ZM400 50c0 27.61-22.39 50-50 50s-50-22.39-50-50h100ZM200 100c-27.61 0-50-22.39-50-50s22.39-50 50-50v100ZM150 100c-27.61 0-50-22.39-50-50s22.39-50 50-50v100ZM600 100c-27.61 0-50-22.39-50-50s22.39-50 50-50v100ZM550 100c-27.61 0-50-22.39-50-50s22.39-50 50-50v100ZM400 0c27.61 0 50 22.39 50 50s-22.39 50-50 50V0ZM450 0c27.61 0 50 22.39 50 50s-22.39 50-50 50V0ZM100 100c27.61 0 50 22.39 50 50s-22.39 50-50 50V100ZM200 200c-27.61 0-50-22.39-50-50s22.39-50 50-50v100ZM400 100c27.61 0 50 22.39 50 50s-22.39 50-50 50V100ZM500 200c-27.61 0-50-22.39-50-50s22.39-50 50-50v100ZM400 100c0 27.61-22.39 50-50 50s-50-22.39-50-50h100ZM300 200c0-27.61 22.39-50 50-50s50 22.39 50 50H300Z"/><g clip-path="url(#clippath)"><g clip-path="url(#clippath-1)"><path fill="#ff0048" d="M-.84-.15h101.18v101.18H-.84z"/></g></g><path d="M550 103c25.92 0 47 21.08 47 47s-21.08 47-47 47-47-21.08-47-47 21.08-47 47-47m0-3c-27.61 0-50 22.39-50 50s22.39 50 50 50 50-22.39 50-50-22.39-50-50-50Z"/></svg>