<svg xmlns="http://www.w3.org/2000/svg" viewBox="0 0 600 200" style="enable-background:new 0 0 600 200" xml:space="preserve"><path d="M100 200H0c0-27.6 22.4-50 50-50s50 22.4 50 50zM50 100c-27.6 0-50 22.4-50 50h100c0-27.6-22.4-50-50-50zm200 50c-27.6 0-50 22.4-50 50h100c0-27.6-22.4-50-50-50zm0-50c-27.6 0-50 22.4-50 50h100c0-27.6-22.4-50-50-50zm0-50c-27.6 0-50 22.4-50 50h100c0-27.6-22.4-50-50-50zm0-50c-27.6 0-50 22.4-50 50h100c0-27.6-22.4-50-50-50zm150 0H300c0 27.6 22.4 50 50 50s50-22.4 50-50zm0 50H300c0 27.6 22.4 50 50 50s50-22.4 50-50zM200 0c-27.6 0-50 22.4-50 50s22.4 50 50 50V0zM100 50c0 27.6 22.4 50 50 50V0c-27.6 0-50 22.4-50 50zm450 0c0 27.6 22.4 50 50 50V0c-27.6 0-50 22.4-50 50zm-50 0c0 27.6 22.4 50 50 50V0c-27.6 0-50 22.4-50 50zM400 0v100c27.6 0 50-22.4 50-50S427.6 0 400 0zm50 0v100c27.6 0 50-22.4 50-50S477.6 0 450 0zM100 100v100c27.6 0 50-22.4 50-50s-22.4-50-50-50zm100 0c-27.6 0-50 22.4-50 50s22.4 50 50 50V100zm250 50c0-27.6-22.4-50-50-50v100c27.6 0 50-22.4 50-50zm50 50V100c-27.6 0-50 22.4-50 50s22.4 50 50 50zM300 100c0 27.6 22.4 50 50 50s50-22.4 50-50H300zm50 50c-27.6 0-50 22.4-50 50h100c0-27.6-22.4-50-50-50z" style="fill:#e2e2e0"/><path d="M550 103c25.9 0 47 21.1 47 47s-21.1 47-47 47-47-21.1-47-47 21.1-47 47-47m0-3c-27.6 0-50 22.4-50 50s22.4 50 50 50 50-22.4 50-50-22.4-50-50-50z"/><path d="M100 51.5H57.4l39.2 16.7-1.2 2.8-38.9-16.6 29.9 29.9-2.1 2.1-29.9-29.9 16.5 38.9-2.8 1.2-16.6-39.2V100h-3V57.4L31.8 96.6 29 95.4l16.5-38.9-29.8 29.9-2.1-2.1 29.9-29.9L4.6 70.9l-1.2-2.8 39.2-16.7H0v-3h42.6L3.4 31.8 4.6 29l38.9 16.5-29.9-29.8 2.1-2.1 29.9 29.9L29.1 4.6l2.8-1.2 16.7 39.2V0h3v42.6L68.2 3.4 71 4.6 54.4 43.5l29.9-29.9 2.1 2.1-29.9 29.9 38.9-16.5 1.2 2.8-39.2 16.6H100v3z" style="fill:#ff0048"/></svg>